<svg id="E-Mailer_Template" data-name="E-Mailer Template" xmlns="http://www.w3.org/2000/svg" viewBox="0 0 540.51 142.6"><defs><style>.cls-1{fill:#59d8ff;}.cls-2{fill:#54caff;}.cls-3{fill:#4dbafc;}.cls-4{fill:#47aced;}.cls-5{fill:#50c1ff;}.cls-6{fill:#49b0f1;}.cls-7{fill:#44a4e3;}.cls-8{fill:#3d94d1;}.cls-9{fill:#3e98d6;}.cls-10{fill:#44a4e4;}.cls-11{fill:#3888c4;}.cls-12{fill:#2f73ac;}.cls-13{fill:#29659c;}</style></defs><title>background</title><polygon class="cls-1" points="158.18 0 20.16 0 125.44 20.36 158.18 0"/><polygon class="cls-2" points="243.84 43.27 158.18 0 125.44 20.36 243.84 43.27"/><polygon class="cls-3" points="260.51 0 243.84 43.27 158.18 0 260.51 0"/><polygon class="cls-4" points="283.23 61.92 260.51 0 243.84 43.27 283.23 61.92"/><polygon class="cls-5" points="338.18 0 260.51 0 283.23 61.92 338.18 0"/><polygon class="cls-6" points="357.84 97.27 338.18 0 283.23 61.92 357.84 97.27"/><polygon class="cls-7" points="423.51 44.97 338.18 0 357.84 97.27 423.51 44.97"/><polygon class="cls-8" points="439.01 0 423.51 44.97 338.18 0 439.01 0"/><polygon class="cls-9" points="454.51 89.93 423.51 44.97 357.84 97.27 454.51 89.93"/><polygon class="cls-10" points="540.51 0 423.51 44.97 439.01 0 540.51 0"/><polygon class="cls-11" points="454.51 89.93 540.51 0 423.51 44.97 454.51 89.93"/><polygon class="cls-12" points="540.51 67.45 454.51 89.93 540.51 0 540.51 67.45"/><polygon class="cls-13" points="540.51 142.6 540.51 67.45 454.51 89.93 540.51 142.6"/></svg>