<svg id="E-Mailer_Template" data-name="E-Mailer Template" xmlns="http://www.w3.org/2000/svg" viewBox="0 0 540.51 142.6"><defs><style>.cls-1{fill:#59d8ff;}.cls-2{fill:#54caff;}.cls-3{fill:#4dbafc;}.cls-4{fill:#47aced;}.cls-5{fill:#50c1ff;}.cls-6{fill:#49b0f1;}.cls-7{fill:#44a4e3;}.cls-8{fill:#3d94d1;}.cls-9{fill:#3e98d6;}.cls-10{fill:#44a4e4;}.cls-11{fill:#3888c4;}.cls-12{fill:#2f73ac;}.cls-13{fill:#29659c;}</style></defs><title>summit-2017-bg-btm</title><polygon class="cls-1" points="382.33 142.69 520.35 142.69 415.07 122.32 382.33 142.69"/><polygon class="cls-2" points="296.67 99.42 382.33 142.69 415.07 122.32 296.67 99.42"/><polygon class="cls-3" points="280 142.69 296.67 99.42 382.33 142.69 280 142.69"/><polygon class="cls-4" points="257.28 80.76 280 142.69 296.67 99.42 257.28 80.76"/><polygon class="cls-5" points="202.33 142.69 280 142.69 257.28 80.76 202.33 142.69"/><polygon class="cls-6" points="182.67 45.42 202.33 142.69 257.28 80.76 182.67 45.42"/><polygon class="cls-7" points="117 97.72 202.33 142.69 182.67 45.42 117 97.72"/><polygon class="cls-8" points="101.5 142.69 117 97.72 202.33 142.69 101.5 142.69"/><polygon class="cls-9" points="86 52.75 117 97.72 182.67 45.42 86 52.75"/><polygon class="cls-10" points="0 142.69 117 97.72 101.5 142.69 0 142.69"/><polygon class="cls-11" points="86 52.75 0 142.69 117 97.72 86 52.75"/><polygon class="cls-12" points="0 75.23 86 52.75 0 142.69 0 75.23"/><polygon class="cls-13" points="0 0.09 0 75.23 86 52.75 0 0.09"/></svg>