<svg id="E-Mailer_Template" data-name="E-Mailer Template" xmlns="http://www.w3.org/2000/svg" viewBox="0 0 107.81 80.43"><defs><style>.cls-1{fill:#3077b0;}.cls-2{fill:#3889c5;}.cls-3{fill:#3b91ce;}.cls-4{fill:#43a3e2;}.cls-5{fill:#52c5ff;}.cls-6{fill:#44a6e5;}.cls-7{fill:#3d94d1;}.cls-8{fill:#3f99d7;}.cls-9{fill:#49b0f1;}.cls-10{fill:#4ebcff;}.cls-11{fill:#4bb7f8;}.cls-12{fill:#47aded;}.cls-13{fill:#46aaeb;}.cls-14{fill:#50c1ff;}.cls-15{fill:#54caff;}.cls-16{fill:#59d8ff;}.cls-17{fill:#43a2e1;}.cls-18{fill:#3a8dc9;}.cls-19{fill:#44a4e3;}.cls-20{fill:#3e97d5;}.cls-21{fill:#419fdd;}.cls-22{fill:#42a0df;}.cls-23{fill:#4ebdff;}.cls-24{fill:#4ab3f5;}.cls-25{fill:#47acec;}.cls-26{fill:#49b1f2;}.cls-27{fill:#3178b1;}.cls-28{fill:#3f98d6;}.cls-29{fill:#44a4e4;}.cls-30{font-size:13.66px;fill:#757575;font-family:GothamBold, Gotham Bold;}</style></defs><title>save_the_date_Emailer</title><polygon class="cls-1" points="54.49 7.53 54.49 19.38 58.8 16.15 54.49 7.53"/><polygon class="cls-2" points="62.39 23.33 58.8 16.15 54.49 19.38 62.39 23.33"/><polygon class="cls-3" points="62.39 13.46 58.8 16.15 54.49 7.53 62.39 13.46"/><polygon class="cls-4" points="67.33 17.16 62.39 23.33 58.8 16.15 62.39 13.46 67.33 17.16"/><polygon class="cls-5" points="70.29 19.38 62.39 23.33 67.33 17.16 70.29 19.38"/><polygon class="cls-2" points="70.29 7.53 54.49 7.53 62.39 3.58 70.29 7.53"/><polygon class="cls-6" points="65.02 11.48 62.39 13.46 54.49 7.53 65.02 11.48"/><polygon class="cls-7" points="70.29 7.53 65.02 11.48 54.49 7.53 70.29 7.53"/><polygon class="cls-8" points="67.33 17.16 70.29 13.46 65.02 11.48 62.39 13.46 67.33 17.16"/><polygon class="cls-9" points="75.55 15.43 70.29 19.38 67.33 17.16 70.29 13.46 75.55 15.43"/><polygon class="cls-10" points="78.19 16.42 70.29 19.38 75.55 15.43 78.19 16.42"/><polygon class="cls-11" points="73.25 9.76 70.29 13.46 65.02 11.48 70.29 7.53 73.25 9.76"/><polygon class="cls-12" points="78.19 3.58 73.25 9.76 70.29 7.53 78.19 3.58"/><polygon class="cls-13" points="78.19 13.46 75.55 15.43 70.29 13.46 73.25 9.76 78.19 13.46"/><polygon class="cls-11" points="80.82 15.43 78.19 16.42 75.55 15.43 78.19 13.46 80.82 15.43"/><polygon class="cls-14" points="86.09 7.53 78.19 13.46 73.25 9.76 78.19 3.58 86.09 7.53"/><polygon class="cls-15" points="101.89 7.53 80.82 15.43 78.19 13.46 86.09 7.53 93.99 3.58 101.89 7.53"/><polygon class="cls-16" points="101.89 19.38 101.89 7.53 80.82 15.43 86.09 19.38 93.99 23.33 101.89 19.38"/><polygon class="cls-14" points="78.19 16.42 86.09 19.38 80.82 15.43 78.19 16.42"/><polygon class="cls-3" points="70.29 19.38 73.74 33.21 70.29 47.03 70.29 19.38"/><polygon class="cls-14" points="78.19 16.42 75.1 27.8 78.19 33.21 78.19 16.42"/><polygon class="cls-11" points="70.29 19.38 75.1 27.8 78.19 16.42 70.29 19.38"/><polygon class="cls-15" points="86.09 19.38 78.19 33.21 78.19 16.42 86.09 19.38"/><polygon class="cls-6" points="75.1 27.8 73.74 33.21 70.29 19.38 75.1 27.8"/><polygon class="cls-11" points="78.19 33.21 75.1 38.62 73.74 33.21 75.1 27.8 78.19 33.21"/><polygon class="cls-17" points="70.29 47.03 75.1 38.62 73.74 33.21 70.29 47.03"/><polygon class="cls-7" points="78.19 50.98 75.1 38.62 70.29 47.03 78.19 50.98"/><polygon class="cls-13" points="78.19 33.21 78.19 50.98 75.1 38.62 78.19 33.21"/><polygon class="cls-11" points="86.09 47.03 78.19 50.98 78.19 33.21 86.09 47.03"/><polygon class="cls-14" points="86.09 19.38 86.09 47.03 78.19 33.21 86.09 19.38"/><polygon class="cls-1" points="14.99 3.58 7.09 15.43 7.09 7.53 14.99 3.58"/><polygon class="cls-2" points="22.89 7.53 7.09 15.43 14.99 3.58 22.89 7.53"/><polygon class="cls-3" points="14.99 15.43 22.89 7.53 7.09 15.43 14.99 15.43"/><polygon class="cls-9" points="22.89 15.43 22.89 7.53 19.73 15.43 22.89 15.43"/><polygon class="cls-18" points="14.99 15.43 19.73 15.43 22.89 7.53 14.99 15.43"/><polygon class="cls-7" points="7.09 23.33 10.25 20.17 7.09 15.43 7.09 23.33"/><polygon class="cls-19" points="11.4 19.02 10.25 20.17 7.09 15.43 11.4 19.02"/><polygon class="cls-2" points="14.99 15.43 11.4 19.02 7.09 15.43 14.99 15.43"/><polygon class="cls-18" points="14.99 27.28 10.25 20.17 7.09 23.33 14.99 27.28"/><polygon class="cls-20" points="16.57 23.33 11.4 19.02 10.25 20.17 14.99 27.28 16.57 23.33"/><polygon class="cls-21" points="19.73 15.43 16.57 23.33 11.4 19.02 14.99 15.43 19.73 15.43"/><polygon class="cls-3" points="22.89 15.43 17.25 23.9 16.57 23.33 19.73 15.43 22.89 15.43"/><polygon class="cls-22" points="14.99 27.28 17.25 23.9 16.57 23.33 14.99 27.28"/><polygon class="cls-23" points="18.94 25.31 14.99 27.28 17.25 23.9 18.94 25.31"/><polygon class="cls-6" points="30.79 19.38 22.89 15.43 25.52 22.02 30.79 19.38"/><polygon class="cls-8" points="18.94 25.31 25.52 22.02 22.89 15.43 17.25 23.9 18.94 25.31"/><polygon class="cls-24" points="7.09 31.23 14.99 27.28 17.25 32.92 7.09 31.23"/><polygon class="cls-4" points="24.33 29.8 20.64 33.49 17.25 32.92 14.99 27.28 18.94 25.31 24.33 29.8"/><polygon class="cls-25" points="25.52 22.02 27.41 26.72 24.33 29.8 18.94 25.31 25.52 22.02"/><polygon class="cls-2" points="7.09 31.23 7.09 47.03 14.99 39.13 7.09 31.23"/><polygon class="cls-26" points="20.64 33.49 18.38 35.74 17.25 32.92 20.64 33.49"/><polygon class="cls-3" points="14.99 39.13 18.38 35.74 17.25 32.92 7.09 31.23 14.99 39.13"/><polygon class="cls-27" points="7.09 47.03 14.99 50.98 22.89 47.03 17.63 41.76 7.09 47.03"/><polygon class="cls-3" points="14.99 39.13 17.63 41.76 7.09 47.03 14.99 39.13"/><polygon class="cls-28" points="22.89 39.13 22.89 47.03 20.26 40.45 22.89 39.13"/><polygon class="cls-25" points="17.63 41.76 20.26 40.45 22.89 47.03 17.63 41.76"/><polygon class="cls-2" points="18.38 35.74 20.26 40.45 17.63 41.76 14.99 39.13 18.38 35.74"/><polygon class="cls-17" points="30.79 35.18 20.64 33.49 18.38 35.74 20.26 40.45 30.79 35.18"/><polygon class="cls-29" points="27.41 26.72 30.79 35.18 24.33 29.8 27.41 26.72"/><polygon class="cls-26" points="20.64 33.49 30.79 35.18 24.33 29.8 20.64 33.49"/><polygon class="cls-11" points="38.69 15.43 30.79 35.18 27.41 26.72 38.69 15.43"/><polygon class="cls-13" points="25.52 22.02 27.41 26.72 38.69 15.43 25.52 22.02"/><polygon class="cls-16" points="54.49 31.23 54.49 47.03 46.59 50.98 38.69 47.03 54.49 31.23"/><polygon class="cls-15" points="54.49 7.53 54.49 23.33 46.59 27.28 54.49 31.23 38.69 47.03 38.69 39.13 30.79 35.18 54.49 7.53"/><polygon class="cls-16" points="46.59 3.58 38.69 7.53 38.69 15.43 54.49 7.53 46.59 3.58"/><polygon class="cls-14" points="30.79 35.18 54.49 7.53 38.69 15.43 30.79 35.18"/><text class="cls-30" transform="translate(7.09 63.8)">SUMMIT<tspan x="0" y="11.95">2017</tspan></text></svg>